<svg width="24" height="24" viewBox="0 0 24 24" fill="none" xmlns="http://www.w3.org/2000/svg">
<path d="M16.0625 7.25V6.9375C16.0625 5.82691 15.6213 4.7618 14.836 3.97649C14.0507 3.19118 12.9856 2.75 11.875 2.75C10.7644 2.75 9.6993 3.19118 8.91399 3.97649C8.12868 4.7618 7.6875 5.82691 7.6875 6.9375V7.25H4H3.75V7.5V18.75C3.75 19.413 4.01339 20.0489 4.48223 20.5178C4.95107 20.9866 5.58696 21.25 6.25 21.25H17.5C18.163 21.25 18.7989 20.9866 19.2678 20.5178C19.7366 20.0489 20 19.413 20 18.75V7.5V7.25H19.75H16.0625ZM11.875 4.375C12.5546 4.375 13.2064 4.64498 13.687 5.12554C14.1675 5.6061 14.4375 6.25788 14.4375 6.9375V7.25H9.3125V6.9375C9.3125 6.25788 9.58248 5.6061 10.063 5.12554C10.5436 4.64498 11.1954 4.375 11.875 4.375ZM18.375 8.875V18.75C18.375 18.9821 18.2828 19.2046 18.1187 19.3687C17.9546 19.5328 17.7321 19.625 17.5 19.625H6.25C6.01794 19.625 5.79538 19.5328 5.63128 19.3687C5.46719 19.2046 5.375 18.9821 5.375 18.75V8.875H18.375Z" fill="#2D2D2D" stroke="#2D2D2D" stroke-width="0.5"/>
</svg>
