<svg width="24" height="24" viewBox="0 0 24 24" fill="none" xmlns="http://www.w3.org/2000/svg">
<path d="M19 11.6496H9.65027M6.35005 11.6496H5M6.35005 11.6496C6.35005 11.2121 6.52386 10.7925 6.83325 10.4831C7.14263 10.1737 7.56225 9.99989 7.99978 9.99989C8.43732 9.99989 8.85694 10.1737 9.16632 10.4831C9.4757 10.7925 9.64951 11.2121 9.64951 11.6496C9.64951 12.0872 9.4757 12.5068 9.16632 12.8162C8.85694 13.1255 8.43732 13.2994 7.99978 13.2994C7.56225 13.2994 7.14263 13.1255 6.83325 12.8162C6.52386 12.5068 6.35005 12.0872 6.35005 11.6496ZM19 16.6495H14.6502M14.6502 16.6495C14.6502 17.0871 14.4759 17.5072 14.1665 17.8167C13.857 18.1261 13.4373 18.3 12.9997 18.3C12.5621 18.3 12.1425 18.1254 11.8331 17.816C11.5238 17.5067 11.3499 17.087 11.3499 16.6495M14.6502 16.6495C14.6502 16.2119 14.4759 15.7925 14.1665 15.4831C13.857 15.1736 13.4373 14.9998 12.9997 14.9998C12.5621 14.9998 12.1425 15.1736 11.8331 15.483C11.5238 15.7924 11.3499 16.212 11.3499 16.6495M11.3499 16.6495H5M19 6.64973H16.6503M13.3501 6.64973H5M13.3501 6.64973C13.3501 6.21219 13.5239 5.79258 13.8332 5.48319C14.1426 5.17381 14.5622 5 14.9998 5C15.2164 5 15.431 5.04267 15.6311 5.12558C15.8313 5.20848 16.0131 5.33 16.1663 5.48319C16.3195 5.63639 16.441 5.81825 16.5239 6.01841C16.6068 6.21856 16.6495 6.43308 16.6495 6.64973C16.6495 6.86638 16.6068 7.0809 16.5239 7.28105C16.441 7.48121 16.3195 7.66307 16.1663 7.81626C16.0131 7.96946 15.8313 8.09097 15.6311 8.17388C15.431 8.25679 15.2164 8.29946 14.9998 8.29946C14.5622 8.29946 14.1426 8.12565 13.8332 7.81626C13.5239 7.50688 13.3501 7.08727 13.3501 6.64973Z" stroke="#2D2D2D" stroke-width="1.5" stroke-miterlimit="10" stroke-linecap="round"/>
</svg>
